%
M48
M72
T01C0.0200
T02C0.0394
T03C0.0400
%
T01
X5150Y10198
X5150Y15198
X10117Y15660
X15150Y14198
X15150Y10198
X10150Y6198
X16309Y18690
X10150Y18198
X5150Y18198
X4273Y8298
X4570Y8986
X15020Y1236
X18410Y18580
X7250Y4320
X6272Y866
X9526Y2284
X10150Y10198
X1320Y18648
X1320Y16679
X1312Y14624
X1312Y12655
X1312Y8718
X1312Y3600
X1323Y2604
X15150Y6198
X8312Y1783
X3363Y10350
T02
X3744Y683
X2760Y2651
X4728Y2651
X10674Y1285
X11674Y1285
X18399Y1317
T03
X829Y1134
X1829Y1134
X829Y2134
X1829Y2134
X829Y3134
X1829Y3134
X829Y4134
X1829Y4134
X829Y5134
X1829Y5134
X829Y6134
X1829Y6134
X829Y7134
X1829Y7134
X829Y8134
X1829Y8134
X829Y9134
X1829Y9134
X829Y10134
X1829Y10134
X829Y11134
X1829Y11134
X829Y12134
X1829Y12134
X829Y13134
X1829Y13134
X829Y14134
X1829Y14134
X829Y15134
X1829Y15134
X829Y16134
X1829Y16134
X829Y17134
X1829Y17134
X829Y18134
X1829Y18134
X829Y19134
X1829Y19134
M30
