G75*
G70*
%OFA0B0*%
%FSLAX24Y24*%
%IPPOS*%
%LPD*%
%AMOC8*
5,1,8,0,0,1.08239X$1,22.5*
%
%ADD10C,0.0200*%
%ADD11C,0.0079*%
%ADD12R,0.0402X0.0161*%
%ADD13R,0.0354X0.0276*%
%ADD14R,0.0450X0.0400*%
%ADD15R,0.0276X0.0354*%
%ADD16R,0.0400X0.0450*%
%ADD17OC8,0.0660*%
%ADD18R,0.1004X0.1063*%
%ADD19R,0.0594X0.0594*%
%ADD20OC8,0.0600*%
%ADD21R,0.0600X0.0600*%
%ADD22C,0.0620*%
%ADD23C,0.0100*%
%ADD24C,0.0320*%
%ADD25C,0.0160*%
D10*
X028701Y016058D02*
X028701Y017860D01*
X029301Y017860D02*
X028100Y017860D01*
X029942Y017560D02*
X029942Y016359D01*
X030242Y016058D01*
X030842Y016058D01*
X031143Y016359D01*
X031143Y017560D01*
X030842Y017860D01*
X030242Y017860D01*
X029942Y017560D01*
X031783Y017860D02*
X032684Y017860D01*
X032984Y017560D01*
X032984Y016959D01*
X032684Y016659D01*
X031783Y016659D01*
X031783Y016058D02*
X031783Y017860D01*
D11*
X019441Y018860D02*
X019441Y000986D01*
X019439Y000932D01*
X019434Y000879D01*
X019425Y000826D01*
X019412Y000774D01*
X019396Y000722D01*
X019376Y000672D01*
X019353Y000624D01*
X019326Y000577D01*
X019297Y000532D01*
X019264Y000489D01*
X019229Y000449D01*
X019191Y000411D01*
X019151Y000376D01*
X019108Y000343D01*
X019063Y000314D01*
X019016Y000287D01*
X018968Y000264D01*
X018918Y000244D01*
X018866Y000228D01*
X018814Y000215D01*
X018761Y000206D01*
X018708Y000201D01*
X018654Y000199D01*
X018654Y000198D02*
X000937Y000198D01*
X000937Y000199D02*
X000883Y000201D01*
X000830Y000206D01*
X000777Y000215D01*
X000725Y000228D01*
X000673Y000244D01*
X000623Y000264D01*
X000575Y000287D01*
X000528Y000314D01*
X000483Y000343D01*
X000440Y000376D01*
X000400Y000411D01*
X000362Y000449D01*
X000327Y000489D01*
X000294Y000532D01*
X000265Y000577D01*
X000238Y000624D01*
X000215Y000672D01*
X000195Y000722D01*
X000179Y000774D01*
X000166Y000826D01*
X000157Y000879D01*
X000152Y000932D01*
X000150Y000986D01*
X000150Y018860D01*
X000152Y018914D01*
X000157Y018967D01*
X000166Y019020D01*
X000179Y019072D01*
X000195Y019124D01*
X000215Y019174D01*
X000238Y019222D01*
X000265Y019269D01*
X000294Y019314D01*
X000327Y019357D01*
X000362Y019397D01*
X000400Y019435D01*
X000440Y019470D01*
X000483Y019503D01*
X000528Y019532D01*
X000575Y019559D01*
X000623Y019582D01*
X000673Y019602D01*
X000725Y019618D01*
X000777Y019631D01*
X000830Y019640D01*
X000883Y019645D01*
X000937Y019647D01*
X018654Y019647D01*
X018708Y019645D01*
X018761Y019640D01*
X018814Y019631D01*
X018866Y019618D01*
X018918Y019602D01*
X018968Y019582D01*
X019016Y019559D01*
X019063Y019532D01*
X019108Y019503D01*
X019151Y019470D01*
X019191Y019435D01*
X019229Y019397D01*
X019264Y019357D01*
X019297Y019314D01*
X019326Y019269D01*
X019353Y019222D01*
X019376Y019174D01*
X019396Y019124D01*
X019412Y019072D01*
X019425Y019020D01*
X019434Y018967D01*
X019439Y018914D01*
X019441Y018860D01*
D12*
X007635Y002357D03*
X007635Y002101D03*
X007635Y001845D03*
X007635Y001589D03*
X005745Y001589D03*
X005745Y001845D03*
X005745Y002101D03*
X005745Y002357D03*
D13*
X008812Y001239D03*
X008812Y000728D03*
X003347Y009459D03*
X003347Y009971D03*
D14*
X003350Y008955D03*
X004050Y008955D03*
X007162Y002983D03*
X007862Y002983D03*
X008362Y002283D03*
X009062Y002283D03*
X007462Y000883D03*
X006762Y000883D03*
D15*
X006268Y002983D03*
X005756Y002983D03*
X003856Y008305D03*
X003344Y008305D03*
D16*
X003356Y007498D03*
X003356Y006798D03*
D17*
X002760Y002651D03*
X004728Y002651D03*
X003744Y000683D03*
D18*
X010320Y003557D03*
X012820Y003557D03*
D19*
X011674Y001285D03*
X010674Y001285D03*
D20*
X001829Y002134D03*
X000829Y002134D03*
X000829Y001134D03*
X000829Y003134D03*
X001829Y003134D03*
X001829Y004134D03*
X000829Y004134D03*
X000829Y005134D03*
X001829Y005134D03*
X001829Y006134D03*
X000829Y006134D03*
X000829Y007134D03*
X001829Y007134D03*
X001829Y008134D03*
X000829Y008134D03*
X000829Y009134D03*
X001829Y009134D03*
X001829Y010134D03*
X000829Y010134D03*
X000829Y011134D03*
X001829Y011134D03*
X001829Y012134D03*
X000829Y012134D03*
X000829Y013134D03*
X001829Y013134D03*
X001829Y014134D03*
X000829Y014134D03*
X000829Y015134D03*
X001829Y015134D03*
X001829Y016134D03*
X000829Y016134D03*
X000829Y017134D03*
X001829Y017134D03*
X001829Y018134D03*
X000829Y018134D03*
X000829Y019134D03*
X001829Y019134D03*
D21*
X001829Y001134D03*
D22*
X018399Y001317D03*
D23*
X000515Y000563D02*
X000405Y000714D01*
X000347Y000892D01*
X000339Y000986D01*
X000339Y018860D01*
X000347Y018953D01*
X000405Y019131D01*
X000419Y019152D01*
X000419Y018965D01*
X000660Y018724D01*
X000999Y018724D01*
X001239Y018965D01*
X001239Y019304D01*
X001086Y019458D01*
X001573Y019458D01*
X001419Y019304D01*
X001419Y018965D01*
X001660Y018724D01*
X001999Y018724D01*
X002239Y018965D01*
X002239Y019304D01*
X002086Y019458D01*
X018654Y019458D01*
X018747Y019451D01*
X018925Y019393D01*
X019077Y019283D01*
X019187Y019131D01*
X019245Y018953D01*
X019252Y018860D01*
X019252Y000986D01*
X019245Y000892D01*
X019187Y000714D01*
X019077Y000563D01*
X018925Y000453D01*
X018747Y000395D01*
X018654Y000388D01*
X004072Y000388D01*
X004184Y000500D01*
X004184Y000854D01*
X004985Y001655D01*
X005395Y001655D01*
X005395Y001589D01*
X005395Y001489D01*
X005405Y001451D01*
X005425Y001416D01*
X005452Y001388D01*
X005487Y001369D01*
X005525Y001358D01*
X005745Y001358D01*
X005745Y001589D01*
X005395Y001589D01*
X005745Y001589D01*
X005745Y001589D01*
X005745Y001589D01*
X005745Y001654D01*
X005745Y001654D01*
X005745Y001589D01*
X005745Y001589D01*
X005745Y001358D01*
X005966Y001358D01*
X006004Y001369D01*
X006038Y001388D01*
X006066Y001416D01*
X006086Y001451D01*
X006096Y001489D01*
X006096Y001589D01*
X005745Y001589D01*
X005745Y001589D01*
X006096Y001589D01*
X006096Y001690D01*
X006086Y001728D01*
X006066Y001762D01*
X006056Y001772D01*
X006056Y001918D01*
X006066Y001928D01*
X006086Y001962D01*
X006096Y002000D01*
X006096Y002101D01*
X006096Y002201D01*
X006086Y002240D01*
X006066Y002274D01*
X006056Y002284D01*
X006056Y002483D01*
X005992Y002548D01*
X005946Y002548D01*
X005946Y002703D01*
X006004Y002761D01*
X006004Y003206D01*
X005940Y003271D01*
X005573Y003271D01*
X005509Y003206D01*
X005509Y002761D01*
X005566Y002703D01*
X005566Y002548D01*
X005499Y002548D01*
X005435Y002483D01*
X005435Y002284D01*
X005425Y002274D01*
X005405Y002240D01*
X005395Y002201D01*
X005395Y002101D01*
X005745Y002101D01*
X005745Y002101D01*
X005395Y002101D01*
X005395Y002035D01*
X004828Y002035D01*
X003916Y001123D01*
X003562Y001123D01*
X003304Y000865D01*
X003304Y000500D01*
X003417Y000388D01*
X000937Y000388D01*
X000844Y000395D01*
X000666Y000453D01*
X000515Y000563D01*
X000493Y000592D02*
X003304Y000592D01*
X003311Y000494D02*
X000610Y000494D01*
X000660Y000724D02*
X000999Y000724D01*
X001239Y000965D01*
X001239Y001304D01*
X000999Y001544D01*
X000660Y001544D01*
X000419Y001304D01*
X000419Y000965D01*
X000660Y000724D01*
X000595Y000789D02*
X000380Y000789D01*
X000348Y000888D02*
X000496Y000888D01*
X000419Y000986D02*
X000339Y000986D01*
X000339Y001085D02*
X000419Y001085D01*
X000419Y001183D02*
X000339Y001183D01*
X000339Y001282D02*
X000419Y001282D01*
X000496Y001380D02*
X000339Y001380D01*
X000339Y001479D02*
X000594Y001479D01*
X000660Y001724D02*
X000999Y001724D01*
X001239Y001965D01*
X001239Y002304D01*
X000999Y002544D01*
X000660Y002544D01*
X000419Y002304D01*
X000419Y001965D01*
X000660Y001724D01*
X000610Y001774D02*
X000339Y001774D01*
X000339Y001676D02*
X004469Y001676D01*
X004567Y001774D02*
X002049Y001774D01*
X001999Y001724D02*
X002239Y001965D01*
X002239Y002304D01*
X001999Y002544D01*
X001660Y002544D01*
X001419Y002304D01*
X001419Y001965D01*
X001660Y001724D01*
X001999Y001724D01*
X002148Y001873D02*
X004666Y001873D01*
X004764Y001971D02*
X002239Y001971D01*
X002239Y002070D02*
X005395Y002070D01*
X005395Y002168D02*
X002239Y002168D01*
X002239Y002267D02*
X002522Y002267D01*
X002578Y002211D02*
X002942Y002211D01*
X003200Y002469D01*
X003200Y002823D01*
X003435Y003058D01*
X003546Y003169D01*
X003546Y006463D01*
X003602Y006463D01*
X003666Y006528D01*
X003666Y007069D01*
X003602Y007133D01*
X003111Y007133D01*
X003046Y007069D01*
X003046Y006528D01*
X003111Y006463D01*
X003166Y006463D01*
X003166Y003326D01*
X002931Y003091D01*
X002578Y003091D01*
X002320Y002833D01*
X002320Y002469D01*
X002578Y002211D01*
X002424Y002365D02*
X002178Y002365D01*
X002080Y002464D02*
X002325Y002464D01*
X002320Y002562D02*
X000339Y002562D01*
X000339Y002464D02*
X000579Y002464D01*
X000481Y002365D02*
X000339Y002365D01*
X000339Y002267D02*
X000419Y002267D01*
X000419Y002168D02*
X000339Y002168D01*
X000339Y002070D02*
X000419Y002070D01*
X000419Y001971D02*
X000339Y001971D01*
X000339Y001873D02*
X000511Y001873D01*
X001049Y001774D02*
X001610Y001774D01*
X001511Y001873D02*
X001148Y001873D01*
X001239Y001971D02*
X001419Y001971D01*
X001419Y002070D02*
X001239Y002070D01*
X001239Y002168D02*
X001419Y002168D01*
X001419Y002267D02*
X001239Y002267D01*
X001178Y002365D02*
X001481Y002365D01*
X001579Y002464D02*
X001080Y002464D01*
X001016Y002684D02*
X001279Y002948D01*
X001279Y003084D01*
X000879Y003084D01*
X000879Y002684D01*
X001016Y002684D01*
X001091Y002759D02*
X001625Y002759D01*
X001660Y002724D02*
X001999Y002724D01*
X002239Y002965D01*
X002239Y003304D01*
X001999Y003544D01*
X001660Y003544D01*
X001419Y003304D01*
X001419Y002965D01*
X001660Y002724D01*
X001526Y002858D02*
X001189Y002858D01*
X001279Y002956D02*
X001428Y002956D01*
X001419Y003055D02*
X001279Y003055D01*
X001279Y003184D02*
X001279Y003321D01*
X001016Y003584D01*
X000879Y003584D01*
X000879Y003185D01*
X000779Y003185D01*
X000779Y003584D01*
X000643Y003584D01*
X000379Y003321D01*
X000379Y003184D01*
X000779Y003184D01*
X000779Y003084D01*
X000379Y003084D01*
X000379Y002948D01*
X000643Y002684D01*
X000779Y002684D01*
X000779Y003084D01*
X000879Y003084D01*
X000879Y003184D01*
X001279Y003184D01*
X001279Y003252D02*
X001419Y003252D01*
X001419Y003153D02*
X000879Y003153D01*
X000879Y003055D02*
X000779Y003055D01*
X000779Y003153D02*
X000339Y003153D01*
X000339Y003055D02*
X000379Y003055D01*
X000379Y002956D02*
X000339Y002956D01*
X000339Y002858D02*
X000470Y002858D01*
X000568Y002759D02*
X000339Y002759D01*
X000339Y002661D02*
X002320Y002661D01*
X002320Y002759D02*
X002034Y002759D01*
X002133Y002858D02*
X002344Y002858D01*
X002443Y002956D02*
X002231Y002956D01*
X002239Y003055D02*
X002541Y003055D01*
X002239Y003153D02*
X002993Y003153D01*
X003092Y003252D02*
X002239Y003252D01*
X002193Y003350D02*
X003166Y003350D01*
X003166Y003449D02*
X002095Y003449D01*
X001999Y003724D02*
X001660Y003724D01*
X001419Y003965D01*
X001419Y004304D01*
X001660Y004544D01*
X001999Y004544D01*
X002239Y004304D01*
X002239Y003965D01*
X001999Y003724D01*
X002019Y003744D02*
X003166Y003744D01*
X003166Y003646D02*
X000339Y003646D01*
X000339Y003744D02*
X000640Y003744D01*
X000660Y003724D02*
X000999Y003724D01*
X001239Y003965D01*
X001239Y004304D01*
X000999Y004544D01*
X000660Y004544D01*
X000419Y004304D01*
X000419Y003965D01*
X000660Y003724D01*
X000541Y003843D02*
X000339Y003843D01*
X000339Y003941D02*
X000443Y003941D01*
X000419Y004040D02*
X000339Y004040D01*
X000339Y004138D02*
X000419Y004138D01*
X000419Y004237D02*
X000339Y004237D01*
X000339Y004335D02*
X000451Y004335D01*
X000549Y004434D02*
X000339Y004434D01*
X000339Y004532D02*
X000648Y004532D01*
X000660Y004724D02*
X000999Y004724D01*
X001239Y004965D01*
X001239Y005304D01*
X000999Y005544D01*
X000660Y005544D01*
X000419Y005304D01*
X000419Y004965D01*
X000660Y004724D01*
X000655Y004729D02*
X000339Y004729D01*
X000339Y004631D02*
X003166Y004631D01*
X003166Y004729D02*
X002004Y004729D01*
X001999Y004724D02*
X002239Y004965D01*
X002239Y005304D01*
X001999Y005544D01*
X001660Y005544D01*
X001419Y005304D01*
X001419Y004965D01*
X001660Y004724D01*
X001999Y004724D01*
X002103Y004828D02*
X003166Y004828D01*
X003166Y004926D02*
X002201Y004926D01*
X002239Y005025D02*
X003166Y005025D01*
X003166Y005123D02*
X002239Y005123D01*
X002239Y005222D02*
X003166Y005222D01*
X003166Y005320D02*
X002223Y005320D01*
X002125Y005419D02*
X003166Y005419D01*
X003166Y005517D02*
X002026Y005517D01*
X001999Y005724D02*
X001660Y005724D01*
X001419Y005965D01*
X001419Y006304D01*
X001660Y006544D01*
X001999Y006544D01*
X002239Y006304D01*
X002239Y005965D01*
X001999Y005724D01*
X002088Y005813D02*
X003166Y005813D01*
X003166Y005911D02*
X002186Y005911D01*
X002239Y006010D02*
X003166Y006010D01*
X003166Y006108D02*
X002239Y006108D01*
X002239Y006207D02*
X003166Y006207D01*
X003166Y006305D02*
X002238Y006305D01*
X002140Y006404D02*
X003166Y006404D01*
X003072Y006502D02*
X002041Y006502D01*
X001999Y006724D02*
X001660Y006724D01*
X001419Y006965D01*
X001419Y007304D01*
X001660Y007544D01*
X001999Y007544D01*
X002239Y007304D01*
X002239Y006965D01*
X001999Y006724D01*
X002073Y006798D02*
X003046Y006798D01*
X003046Y006896D02*
X002171Y006896D01*
X002239Y006995D02*
X003046Y006995D01*
X003071Y007093D02*
X002239Y007093D01*
X002239Y007192D02*
X003082Y007192D01*
X003111Y007163D02*
X003602Y007163D01*
X003666Y007228D01*
X003666Y007769D01*
X003602Y007833D01*
X003534Y007833D01*
X003534Y008024D01*
X003579Y008069D01*
X003598Y008035D01*
X003626Y008008D01*
X003660Y007988D01*
X003698Y007978D01*
X003837Y007978D01*
X003837Y008286D01*
X003875Y008286D01*
X003875Y008324D01*
X004144Y008324D01*
X004144Y008502D01*
X004133Y008540D01*
X004114Y008574D01*
X004086Y008602D01*
X004052Y008622D01*
X004013Y008632D01*
X004000Y008632D01*
X004000Y008905D01*
X004100Y008905D01*
X004100Y009005D01*
X004000Y009005D01*
X004000Y009305D01*
X003805Y009305D01*
X003767Y009295D01*
X003733Y009275D01*
X003705Y009247D01*
X003685Y009213D01*
X003683Y009203D01*
X003622Y009263D01*
X003635Y009275D01*
X003635Y009642D01*
X003570Y009707D01*
X003125Y009707D01*
X003060Y009642D01*
X003060Y009275D01*
X003075Y009260D01*
X002239Y009260D01*
X002239Y009304D02*
X001999Y009544D01*
X001660Y009544D01*
X001419Y009304D01*
X001419Y008965D01*
X001239Y008965D01*
X000999Y008724D01*
X000660Y008724D01*
X000419Y008965D01*
X000339Y008965D01*
X000419Y008965D02*
X000419Y009304D01*
X000660Y009544D01*
X000999Y009544D01*
X001239Y009304D01*
X001239Y008965D01*
X001239Y009063D02*
X001419Y009063D01*
X001419Y008965D02*
X001660Y008724D01*
X001999Y008724D01*
X002239Y008965D01*
X003015Y008965D01*
X003015Y009063D02*
X002239Y009063D01*
X002239Y008965D02*
X002239Y009304D01*
X002185Y009359D02*
X003060Y009359D01*
X003060Y009457D02*
X002086Y009457D01*
X001999Y009724D02*
X001660Y009724D01*
X001419Y009965D01*
X001419Y010304D01*
X001660Y010544D01*
X001999Y010544D01*
X002239Y010304D01*
X002239Y009965D01*
X001999Y009724D01*
X002028Y009753D02*
X003095Y009753D01*
X003125Y009723D02*
X003060Y009787D01*
X003060Y010154D01*
X003125Y010218D01*
X003126Y010218D01*
X003093Y010297D01*
X003093Y010404D01*
X003134Y010503D01*
X003210Y010579D01*
X003310Y010620D01*
X003417Y010620D01*
X003516Y010579D01*
X003592Y010503D01*
X003633Y010404D01*
X003633Y010297D01*
X003592Y010197D01*
X003592Y010197D01*
X003635Y010154D01*
X003635Y009787D01*
X003570Y009723D01*
X003125Y009723D01*
X003073Y009654D02*
X000339Y009654D01*
X000339Y009556D02*
X003060Y009556D01*
X003075Y009260D02*
X003015Y009200D01*
X003015Y008709D01*
X003079Y008645D01*
X003160Y008645D01*
X003160Y008591D01*
X003096Y008527D01*
X003096Y008082D01*
X003154Y008024D01*
X003154Y007833D01*
X003111Y007833D01*
X003046Y007769D01*
X003046Y007228D01*
X003111Y007163D01*
X003046Y007290D02*
X002239Y007290D01*
X002155Y007389D02*
X003046Y007389D01*
X003046Y007487D02*
X002056Y007487D01*
X001999Y007724D02*
X001660Y007724D01*
X001419Y007965D01*
X001419Y008304D01*
X001660Y008544D01*
X001999Y008544D01*
X002239Y008304D01*
X002239Y007965D01*
X001999Y007724D01*
X002058Y007783D02*
X003060Y007783D01*
X003046Y007684D02*
X000339Y007684D01*
X000339Y007586D02*
X003046Y007586D01*
X003154Y007881D02*
X002156Y007881D01*
X002239Y007980D02*
X003154Y007980D01*
X003100Y008078D02*
X002239Y008078D01*
X002239Y008177D02*
X003096Y008177D01*
X003096Y008275D02*
X002239Y008275D01*
X002170Y008374D02*
X003096Y008374D01*
X003096Y008472D02*
X002071Y008472D01*
X002043Y008768D02*
X003015Y008768D01*
X003015Y008866D02*
X002141Y008866D01*
X002239Y009162D02*
X003015Y009162D01*
X003055Y008669D02*
X000339Y008669D01*
X000339Y008571D02*
X003140Y008571D01*
X003837Y008275D02*
X003875Y008275D01*
X003875Y008286D02*
X003875Y007978D01*
X004013Y007978D01*
X004052Y007988D01*
X004086Y008008D01*
X004114Y008035D01*
X004133Y008070D01*
X004144Y008108D01*
X004144Y008286D01*
X003875Y008286D01*
X003875Y008177D02*
X003837Y008177D01*
X003837Y008078D02*
X003875Y008078D01*
X003875Y007980D02*
X003837Y007980D01*
X003689Y007980D02*
X003534Y007980D01*
X003534Y007881D02*
X019252Y007881D01*
X019252Y007783D02*
X003652Y007783D01*
X003666Y007684D02*
X019252Y007684D01*
X019252Y007586D02*
X003666Y007586D01*
X003666Y007487D02*
X019252Y007487D01*
X019252Y007389D02*
X003666Y007389D01*
X003666Y007290D02*
X019252Y007290D01*
X019252Y007192D02*
X003630Y007192D01*
X003642Y007093D02*
X019252Y007093D01*
X019252Y006995D02*
X003666Y006995D01*
X003666Y006896D02*
X019252Y006896D01*
X019252Y006798D02*
X003666Y006798D01*
X003666Y006699D02*
X019252Y006699D01*
X019252Y006601D02*
X003666Y006601D01*
X003641Y006502D02*
X019252Y006502D01*
X019252Y006404D02*
X003546Y006404D01*
X003546Y006305D02*
X019252Y006305D01*
X019252Y006207D02*
X003546Y006207D01*
X003546Y006108D02*
X019252Y006108D01*
X019252Y006010D02*
X003546Y006010D01*
X003546Y005911D02*
X019252Y005911D01*
X019252Y005813D02*
X003546Y005813D01*
X003546Y005714D02*
X019252Y005714D01*
X019252Y005616D02*
X003546Y005616D01*
X003546Y005517D02*
X019252Y005517D01*
X019252Y005419D02*
X003546Y005419D01*
X003546Y005320D02*
X019252Y005320D01*
X019252Y005222D02*
X003546Y005222D01*
X003546Y005123D02*
X019252Y005123D01*
X019252Y005025D02*
X003546Y005025D01*
X003546Y004926D02*
X019252Y004926D01*
X019252Y004828D02*
X003546Y004828D01*
X003546Y004729D02*
X019252Y004729D01*
X019252Y004631D02*
X003546Y004631D01*
X003546Y004532D02*
X019252Y004532D01*
X019252Y004434D02*
X003546Y004434D01*
X003546Y004335D02*
X019252Y004335D01*
X019252Y004237D02*
X003546Y004237D01*
X003546Y004138D02*
X009712Y004138D01*
X009708Y004134D02*
X009708Y002980D01*
X009772Y002916D01*
X009822Y002916D01*
X009822Y001962D01*
X009289Y001429D01*
X009093Y001429D01*
X009035Y001487D01*
X008589Y001487D01*
X008532Y001429D01*
X008435Y001429D01*
X008351Y001513D01*
X008366Y001513D01*
X008465Y001555D01*
X008541Y001631D01*
X008582Y001730D01*
X008582Y001837D01*
X008541Y001936D01*
X008504Y001973D01*
X008633Y001973D01*
X008695Y002035D01*
X008697Y002026D01*
X008717Y001991D01*
X008745Y001963D01*
X008779Y001944D01*
X008817Y001933D01*
X009012Y001933D01*
X009012Y002233D01*
X009112Y002233D01*
X009112Y001933D01*
X009307Y001933D01*
X009345Y001944D01*
X009379Y001963D01*
X009407Y001991D01*
X009427Y002026D01*
X009437Y002064D01*
X009437Y002233D01*
X009112Y002233D01*
X009112Y002333D01*
X009437Y002333D01*
X009437Y002503D01*
X009427Y002541D01*
X009407Y002576D01*
X009379Y002603D01*
X009345Y002623D01*
X009307Y002633D01*
X009112Y002633D01*
X009112Y002333D01*
X009012Y002333D01*
X009012Y002633D01*
X008817Y002633D01*
X008779Y002623D01*
X008745Y002603D01*
X008717Y002576D01*
X008697Y002541D01*
X008695Y002531D01*
X008633Y002593D01*
X008092Y002593D01*
X008027Y002529D01*
X008027Y002291D01*
X007946Y002291D01*
X007946Y002483D01*
X007881Y002548D01*
X007825Y002548D01*
X007825Y002673D01*
X008133Y002673D01*
X008197Y002738D01*
X008197Y003229D01*
X008133Y003293D01*
X007592Y003293D01*
X007527Y003229D01*
X007527Y002917D01*
X007497Y002887D01*
X007497Y003229D01*
X007433Y003293D01*
X006892Y003293D01*
X006827Y003229D01*
X006827Y003173D01*
X006516Y003173D01*
X006516Y003206D01*
X006451Y003271D01*
X006085Y003271D01*
X006020Y003206D01*
X006020Y002761D01*
X006085Y002696D01*
X006451Y002696D01*
X006516Y002761D01*
X006516Y002793D01*
X006827Y002793D01*
X006827Y002738D01*
X006892Y002673D01*
X007433Y002673D01*
X007445Y002686D01*
X007445Y002548D01*
X007389Y002548D01*
X007324Y002483D01*
X007324Y002231D01*
X007326Y002229D01*
X007324Y002227D01*
X007324Y001975D01*
X007326Y001973D01*
X007324Y001971D01*
X007324Y001719D01*
X007326Y001717D01*
X007324Y001715D01*
X007324Y001463D01*
X007389Y001398D01*
X007881Y001398D01*
X007882Y001399D01*
X007928Y001399D01*
X008022Y001305D01*
X008166Y001161D01*
X008278Y001049D01*
X008532Y001049D01*
X008589Y000992D01*
X009035Y000992D01*
X009093Y001049D01*
X009447Y001049D01*
X009558Y001161D01*
X010202Y001805D01*
X010202Y002916D01*
X010867Y002916D01*
X010932Y002980D01*
X010932Y004134D01*
X010867Y004199D01*
X009772Y004199D01*
X009708Y004134D01*
X009708Y004040D02*
X003546Y004040D01*
X003546Y003941D02*
X009708Y003941D01*
X009708Y003843D02*
X003546Y003843D01*
X003546Y003744D02*
X009708Y003744D01*
X009708Y003646D02*
X003546Y003646D01*
X003546Y003547D02*
X009708Y003547D01*
X009708Y003449D02*
X003546Y003449D01*
X003546Y003350D02*
X009708Y003350D01*
X009708Y003252D02*
X008174Y003252D01*
X008197Y003153D02*
X009708Y003153D01*
X009708Y003055D02*
X008197Y003055D01*
X008197Y002956D02*
X009731Y002956D01*
X009822Y002858D02*
X008197Y002858D01*
X008197Y002759D02*
X009822Y002759D01*
X009822Y002661D02*
X007825Y002661D01*
X007825Y002562D02*
X008061Y002562D01*
X008027Y002464D02*
X007946Y002464D01*
X007946Y002365D02*
X008027Y002365D01*
X008664Y002562D02*
X008710Y002562D01*
X009012Y002562D02*
X009112Y002562D01*
X009112Y002464D02*
X009012Y002464D01*
X009012Y002365D02*
X009112Y002365D01*
X009112Y002267D02*
X009822Y002267D01*
X009822Y002365D02*
X009437Y002365D01*
X009437Y002464D02*
X009822Y002464D01*
X009822Y002562D02*
X009415Y002562D01*
X009437Y002168D02*
X009822Y002168D01*
X009822Y002070D02*
X009437Y002070D01*
X009387Y001971D02*
X009822Y001971D01*
X009733Y001873D02*
X008567Y001873D01*
X008582Y001774D02*
X009634Y001774D01*
X009536Y001676D02*
X008560Y001676D01*
X008488Y001577D02*
X009437Y001577D01*
X009339Y001479D02*
X009043Y001479D01*
X008581Y001479D02*
X008385Y001479D01*
X008045Y001282D02*
X004612Y001282D01*
X004514Y001183D02*
X006425Y001183D01*
X006417Y001176D02*
X006397Y001141D01*
X006387Y001103D01*
X006387Y000933D01*
X006712Y000933D01*
X006712Y000833D01*
X006812Y000833D01*
X006812Y000533D01*
X007007Y000533D01*
X007045Y000544D01*
X007079Y000563D01*
X007107Y000591D01*
X007127Y000626D01*
X007130Y000635D01*
X007192Y000573D01*
X007504Y000573D01*
X007539Y000538D01*
X008532Y000538D01*
X008589Y000480D01*
X009035Y000480D01*
X009099Y000544D01*
X009099Y000911D01*
X009035Y000975D01*
X008589Y000975D01*
X008532Y000918D01*
X007797Y000918D01*
X007797Y001129D01*
X007733Y001193D01*
X007192Y001193D01*
X007130Y001131D01*
X007127Y001141D01*
X007107Y001176D01*
X007079Y001203D01*
X007045Y001223D01*
X007007Y001233D01*
X006812Y001233D01*
X006812Y000933D01*
X006712Y000933D01*
X006712Y001233D01*
X006517Y001233D01*
X006479Y001223D01*
X006445Y001203D01*
X006417Y001176D01*
X006387Y001085D02*
X004415Y001085D01*
X004317Y000986D02*
X006387Y000986D01*
X006387Y000833D02*
X006387Y000664D01*
X006397Y000626D01*
X006417Y000591D01*
X006445Y000563D01*
X006479Y000544D01*
X006517Y000533D01*
X006712Y000533D01*
X006712Y000833D01*
X006387Y000833D01*
X006387Y000789D02*
X004184Y000789D01*
X004184Y000691D02*
X006387Y000691D01*
X006417Y000592D02*
X004184Y000592D01*
X004178Y000494D02*
X008575Y000494D01*
X009049Y000494D02*
X018982Y000494D01*
X019098Y000592D02*
X009099Y000592D01*
X009099Y000691D02*
X019170Y000691D01*
X019211Y000789D02*
X009099Y000789D01*
X009099Y000888D02*
X010321Y000888D01*
X010331Y000878D02*
X011016Y000878D01*
X011080Y000943D01*
X011080Y001423D01*
X011227Y001569D01*
X011227Y001333D01*
X011625Y001333D01*
X011625Y001237D01*
X011227Y001237D01*
X011227Y000968D01*
X011237Y000930D01*
X011257Y000896D01*
X011285Y000868D01*
X011319Y000848D01*
X011357Y000838D01*
X011625Y000838D01*
X011625Y001237D01*
X011722Y001237D01*
X011722Y001333D01*
X012120Y001333D01*
X012120Y001602D01*
X012110Y001640D01*
X012091Y001674D01*
X012063Y001702D01*
X012028Y001722D01*
X011990Y001732D01*
X011722Y001732D01*
X011722Y001333D01*
X011625Y001333D01*
X011625Y001732D01*
X011389Y001732D01*
X012573Y002916D01*
X013367Y002916D01*
X013432Y002980D01*
X013432Y004134D01*
X013367Y004199D01*
X012272Y004199D01*
X012208Y004134D01*
X012208Y003088D01*
X010812Y001692D01*
X010331Y001692D01*
X010267Y001627D01*
X010267Y000943D01*
X010331Y000878D01*
X010267Y000986D02*
X007797Y000986D01*
X007797Y001085D02*
X008242Y001085D01*
X008144Y001183D02*
X007743Y001183D01*
X007947Y001380D02*
X006024Y001380D01*
X006094Y001479D02*
X007324Y001479D01*
X007324Y001577D02*
X006096Y001577D01*
X006096Y001676D02*
X007324Y001676D01*
X007324Y001774D02*
X006056Y001774D01*
X006056Y001873D02*
X007324Y001873D01*
X007324Y001971D02*
X006088Y001971D01*
X006096Y002070D02*
X007324Y002070D01*
X007324Y002168D02*
X006096Y002168D01*
X006096Y002101D02*
X005745Y002101D01*
X005745Y002101D01*
X006096Y002101D01*
X006070Y002267D02*
X007324Y002267D01*
X007324Y002365D02*
X006056Y002365D01*
X006056Y002464D02*
X007324Y002464D01*
X007445Y002562D02*
X005946Y002562D01*
X005946Y002661D02*
X007445Y002661D01*
X007497Y002956D02*
X007527Y002956D01*
X007527Y003055D02*
X007497Y003055D01*
X007497Y003153D02*
X007527Y003153D01*
X007550Y003252D02*
X007474Y003252D01*
X006850Y003252D02*
X006470Y003252D01*
X006066Y003252D02*
X005958Y003252D01*
X006004Y003153D02*
X006020Y003153D01*
X006020Y003055D02*
X006004Y003055D01*
X006004Y002956D02*
X006020Y002956D01*
X006020Y002858D02*
X006004Y002858D01*
X006003Y002759D02*
X006022Y002759D01*
X005566Y002661D02*
X004777Y002661D01*
X004777Y002700D02*
X005208Y002700D01*
X005208Y002850D01*
X004927Y003131D01*
X004777Y003131D01*
X004777Y002700D01*
X004680Y002700D01*
X004680Y003131D01*
X004530Y003131D01*
X004248Y002850D01*
X004248Y002700D01*
X004680Y002700D01*
X004680Y002603D01*
X004248Y002603D01*
X004248Y002452D01*
X004530Y002171D01*
X004680Y002171D01*
X004680Y002603D01*
X004777Y002603D01*
X004777Y002700D01*
X004777Y002759D02*
X004680Y002759D01*
X004680Y002661D02*
X003200Y002661D01*
X003200Y002759D02*
X004248Y002759D01*
X004256Y002858D02*
X003235Y002858D01*
X003334Y002956D02*
X004355Y002956D01*
X004453Y003055D02*
X003432Y003055D01*
X003531Y003153D02*
X005509Y003153D01*
X005509Y003055D02*
X005004Y003055D01*
X005102Y002956D02*
X005509Y002956D01*
X005509Y002858D02*
X005201Y002858D01*
X005208Y002759D02*
X005510Y002759D01*
X005566Y002562D02*
X005208Y002562D01*
X005208Y002603D02*
X004777Y002603D01*
X004777Y002171D01*
X004927Y002171D01*
X005208Y002452D01*
X005208Y002603D01*
X005208Y002464D02*
X005435Y002464D01*
X005435Y002365D02*
X005121Y002365D01*
X005023Y002267D02*
X005421Y002267D01*
X004777Y002267D02*
X004680Y002267D01*
X004680Y002365D02*
X004777Y002365D01*
X004777Y002464D02*
X004680Y002464D01*
X004680Y002562D02*
X004777Y002562D01*
X004434Y002267D02*
X002998Y002267D01*
X003096Y002365D02*
X004335Y002365D01*
X004248Y002464D02*
X003195Y002464D01*
X003200Y002562D02*
X004248Y002562D01*
X004680Y002858D02*
X004777Y002858D01*
X004777Y002956D02*
X004680Y002956D01*
X004680Y003055D02*
X004777Y003055D01*
X005554Y003252D02*
X003546Y003252D01*
X003166Y003547D02*
X001053Y003547D01*
X001151Y003449D02*
X001564Y003449D01*
X001466Y003350D02*
X001250Y003350D01*
X000879Y003350D02*
X000779Y003350D01*
X000779Y003252D02*
X000879Y003252D01*
X000879Y003449D02*
X000779Y003449D01*
X000779Y003547D02*
X000879Y003547D01*
X001019Y003744D02*
X001640Y003744D01*
X001541Y003843D02*
X001118Y003843D01*
X001216Y003941D02*
X001443Y003941D01*
X001419Y004040D02*
X001239Y004040D01*
X001239Y004138D02*
X001419Y004138D01*
X001419Y004237D02*
X001239Y004237D01*
X001208Y004335D02*
X001451Y004335D01*
X001549Y004434D02*
X001110Y004434D01*
X001011Y004532D02*
X001648Y004532D01*
X001655Y004729D02*
X001004Y004729D01*
X001103Y004828D02*
X001556Y004828D01*
X001458Y004926D02*
X001201Y004926D01*
X001239Y005025D02*
X001419Y005025D01*
X001419Y005123D02*
X001239Y005123D01*
X001239Y005222D02*
X001419Y005222D01*
X001436Y005320D02*
X001223Y005320D01*
X001125Y005419D02*
X001534Y005419D01*
X001633Y005517D02*
X001026Y005517D01*
X000999Y005724D02*
X000660Y005724D01*
X000419Y005965D01*
X000419Y006304D01*
X000660Y006544D01*
X000999Y006544D01*
X001239Y006304D01*
X001239Y005965D01*
X000999Y005724D01*
X001088Y005813D02*
X001571Y005813D01*
X001473Y005911D02*
X001186Y005911D01*
X001239Y006010D02*
X001419Y006010D01*
X001419Y006108D02*
X001239Y006108D01*
X001239Y006207D02*
X001419Y006207D01*
X001421Y006305D02*
X001238Y006305D01*
X001140Y006404D02*
X001519Y006404D01*
X001618Y006502D02*
X001041Y006502D01*
X000999Y006724D02*
X000660Y006724D01*
X000419Y006965D01*
X000419Y007304D01*
X000660Y007544D01*
X000999Y007544D01*
X001239Y007304D01*
X001239Y006965D01*
X000999Y006724D01*
X001073Y006798D02*
X001586Y006798D01*
X001488Y006896D02*
X001171Y006896D01*
X001239Y006995D02*
X001419Y006995D01*
X001419Y007093D02*
X001239Y007093D01*
X001239Y007192D02*
X001419Y007192D01*
X001419Y007290D02*
X001239Y007290D01*
X001155Y007389D02*
X001504Y007389D01*
X001603Y007487D02*
X001056Y007487D01*
X000999Y007724D02*
X000660Y007724D01*
X000419Y007965D01*
X000419Y008304D01*
X000660Y008544D01*
X000999Y008544D01*
X001239Y008304D01*
X001239Y007965D01*
X000999Y007724D01*
X001058Y007783D02*
X001601Y007783D01*
X001503Y007881D02*
X001156Y007881D01*
X001239Y007980D02*
X001419Y007980D01*
X001419Y008078D02*
X001239Y008078D01*
X001239Y008177D02*
X001419Y008177D01*
X001419Y008275D02*
X001239Y008275D01*
X001170Y008374D02*
X001489Y008374D01*
X001588Y008472D02*
X001071Y008472D01*
X001043Y008768D02*
X001616Y008768D01*
X001518Y008866D02*
X001141Y008866D01*
X001239Y009162D02*
X001419Y009162D01*
X001419Y009260D02*
X001239Y009260D01*
X001185Y009359D02*
X001474Y009359D01*
X001573Y009457D02*
X001086Y009457D01*
X000999Y009724D02*
X000660Y009724D01*
X000419Y009965D01*
X000419Y010304D01*
X000660Y010544D01*
X000999Y010544D01*
X001239Y010304D01*
X001239Y009965D01*
X000999Y009724D01*
X001028Y009753D02*
X001631Y009753D01*
X001533Y009851D02*
X001126Y009851D01*
X001225Y009950D02*
X001434Y009950D01*
X001419Y010048D02*
X001239Y010048D01*
X001239Y010147D02*
X001419Y010147D01*
X001419Y010245D02*
X001239Y010245D01*
X001200Y010344D02*
X001459Y010344D01*
X001558Y010442D02*
X001101Y010442D01*
X001003Y010541D02*
X001656Y010541D01*
X001660Y010724D02*
X001999Y010724D01*
X002239Y010965D01*
X002239Y011304D01*
X001999Y011544D01*
X001660Y011544D01*
X001419Y011304D01*
X001419Y010965D01*
X001660Y010724D01*
X001646Y010738D02*
X001013Y010738D01*
X000999Y010724D02*
X001239Y010965D01*
X001239Y011304D01*
X000999Y011544D01*
X000660Y011544D01*
X000419Y011304D01*
X000419Y010965D01*
X000660Y010724D01*
X000999Y010724D01*
X001111Y010836D02*
X001548Y010836D01*
X001449Y010935D02*
X001210Y010935D01*
X001239Y011033D02*
X001419Y011033D01*
X001419Y011132D02*
X001239Y011132D01*
X001239Y011230D02*
X001419Y011230D01*
X001444Y011329D02*
X001215Y011329D01*
X001116Y011427D02*
X001543Y011427D01*
X001641Y011526D02*
X001018Y011526D01*
X000999Y011724D02*
X000660Y011724D01*
X000419Y011965D01*
X000419Y012304D01*
X000660Y012544D01*
X000999Y012544D01*
X001239Y012304D01*
X001239Y011965D01*
X000999Y011724D01*
X001096Y011821D02*
X001563Y011821D01*
X001660Y011724D02*
X001419Y011965D01*
X001419Y012304D01*
X001660Y012544D01*
X001999Y012544D01*
X002239Y012304D01*
X002239Y011965D01*
X001999Y011724D01*
X001660Y011724D01*
X001464Y011920D02*
X001195Y011920D01*
X001239Y012018D02*
X001419Y012018D01*
X001419Y012117D02*
X001239Y012117D01*
X001239Y012215D02*
X001419Y012215D01*
X001429Y012314D02*
X001230Y012314D01*
X001131Y012412D02*
X001528Y012412D01*
X001626Y012511D02*
X001033Y012511D01*
X000999Y012724D02*
X000660Y012724D01*
X000419Y012965D01*
X000419Y013304D01*
X000660Y013544D01*
X000999Y013544D01*
X001239Y013304D01*
X001239Y012965D01*
X000999Y012724D01*
X001081Y012806D02*
X001578Y012806D01*
X001660Y012724D02*
X001419Y012965D01*
X001419Y013304D01*
X001660Y013544D01*
X001999Y013544D01*
X002239Y013304D01*
X002239Y012965D01*
X001999Y012724D01*
X001660Y012724D01*
X001479Y012905D02*
X001180Y012905D01*
X001239Y013003D02*
X001419Y013003D01*
X001419Y013102D02*
X001239Y013102D01*
X001239Y013200D02*
X001419Y013200D01*
X001419Y013299D02*
X001239Y013299D01*
X001146Y013397D02*
X001513Y013397D01*
X001611Y013496D02*
X001048Y013496D01*
X000999Y013724D02*
X000660Y013724D01*
X000419Y013965D01*
X000419Y014304D01*
X000660Y014544D01*
X000999Y014544D01*
X001239Y014304D01*
X001239Y013965D01*
X000999Y013724D01*
X001066Y013791D02*
X001593Y013791D01*
X001660Y013724D02*
X001999Y013724D01*
X002239Y013965D01*
X002239Y014304D01*
X001999Y014544D01*
X001660Y014544D01*
X001419Y014304D01*
X001419Y013965D01*
X001660Y013724D01*
X001494Y013890D02*
X001165Y013890D01*
X001239Y013988D02*
X001419Y013988D01*
X001419Y014087D02*
X001239Y014087D01*
X001239Y014185D02*
X001419Y014185D01*
X001419Y014284D02*
X001239Y014284D01*
X001161Y014382D02*
X001498Y014382D01*
X001596Y014481D02*
X001063Y014481D01*
X000999Y014724D02*
X000660Y014724D01*
X000419Y014965D01*
X000419Y015304D01*
X000660Y015544D01*
X000999Y015544D01*
X001239Y015304D01*
X001239Y014965D01*
X000999Y014724D01*
X001051Y014776D02*
X001608Y014776D01*
X001660Y014724D02*
X001999Y014724D01*
X002239Y014965D01*
X002239Y015304D01*
X001999Y015544D01*
X001660Y015544D01*
X001419Y015304D01*
X001419Y014965D01*
X001660Y014724D01*
X001509Y014875D02*
X001150Y014875D01*
X001239Y014973D02*
X001419Y014973D01*
X001419Y015072D02*
X001239Y015072D01*
X001239Y015170D02*
X001419Y015170D01*
X001419Y015269D02*
X001239Y015269D01*
X001176Y015367D02*
X001483Y015367D01*
X001581Y015466D02*
X001078Y015466D01*
X000999Y015724D02*
X000660Y015724D01*
X000419Y015965D01*
X000419Y016304D01*
X000660Y016544D01*
X000999Y016544D01*
X001239Y016304D01*
X001239Y015965D01*
X000999Y015724D01*
X001036Y015761D02*
X001623Y015761D01*
X001660Y015724D02*
X001999Y015724D01*
X002239Y015965D01*
X002239Y016304D01*
X001999Y016544D01*
X001660Y016544D01*
X001419Y016304D01*
X001419Y015965D01*
X001660Y015724D01*
X001524Y015860D02*
X001135Y015860D01*
X001233Y015958D02*
X001426Y015958D01*
X001419Y016057D02*
X001239Y016057D01*
X001239Y016155D02*
X001419Y016155D01*
X001419Y016254D02*
X001239Y016254D01*
X001191Y016352D02*
X001468Y016352D01*
X001566Y016451D02*
X001093Y016451D01*
X000566Y016451D02*
X000339Y016451D01*
X000339Y016549D02*
X019252Y016549D01*
X019252Y016451D02*
X002093Y016451D01*
X002191Y016352D02*
X019252Y016352D01*
X019252Y016254D02*
X002239Y016254D01*
X002239Y016155D02*
X019252Y016155D01*
X019252Y016057D02*
X002239Y016057D01*
X002233Y015958D02*
X019252Y015958D01*
X019252Y015860D02*
X002135Y015860D01*
X002036Y015761D02*
X019252Y015761D01*
X019252Y015663D02*
X000339Y015663D01*
X000339Y015761D02*
X000623Y015761D01*
X000524Y015860D02*
X000339Y015860D01*
X000339Y015958D02*
X000426Y015958D01*
X000419Y016057D02*
X000339Y016057D01*
X000339Y016155D02*
X000419Y016155D01*
X000419Y016254D02*
X000339Y016254D01*
X000339Y016352D02*
X000468Y016352D01*
X000339Y016648D02*
X019252Y016648D01*
X019252Y016746D02*
X002021Y016746D01*
X001999Y016724D02*
X002239Y016965D01*
X002239Y017304D01*
X001999Y017544D01*
X001660Y017544D01*
X001419Y017304D01*
X001419Y016965D01*
X001660Y016724D01*
X001999Y016724D01*
X002120Y016845D02*
X019252Y016845D01*
X019252Y016943D02*
X002218Y016943D01*
X002239Y017042D02*
X019252Y017042D01*
X019252Y017140D02*
X002239Y017140D01*
X002239Y017239D02*
X019252Y017239D01*
X019252Y017337D02*
X002206Y017337D01*
X002108Y017436D02*
X019252Y017436D01*
X019252Y017534D02*
X002009Y017534D01*
X001999Y017724D02*
X001660Y017724D01*
X001419Y017965D01*
X001419Y018304D01*
X001660Y018544D01*
X001999Y018544D01*
X002239Y018304D01*
X002239Y017965D01*
X001999Y017724D01*
X002006Y017731D02*
X019252Y017731D01*
X019252Y017633D02*
X000339Y017633D01*
X000339Y017731D02*
X000653Y017731D01*
X000660Y017724D02*
X000999Y017724D01*
X001239Y017965D01*
X001239Y018304D01*
X000999Y018544D01*
X000660Y018544D01*
X000419Y018304D01*
X000419Y017965D01*
X000660Y017724D01*
X000554Y017830D02*
X000339Y017830D01*
X000339Y017928D02*
X000456Y017928D01*
X000419Y018027D02*
X000339Y018027D01*
X000339Y018125D02*
X000419Y018125D01*
X000419Y018224D02*
X000339Y018224D01*
X000339Y018322D02*
X000438Y018322D01*
X000536Y018421D02*
X000339Y018421D01*
X000339Y018519D02*
X000635Y018519D01*
X000569Y018815D02*
X000339Y018815D01*
X000339Y018716D02*
X019252Y018716D01*
X019252Y018618D02*
X000339Y018618D01*
X000344Y018913D02*
X000471Y018913D01*
X000419Y019012D02*
X000366Y019012D01*
X000398Y019110D02*
X000419Y019110D01*
X001138Y019406D02*
X001521Y019406D01*
X001423Y019307D02*
X001236Y019307D01*
X001239Y019209D02*
X001419Y019209D01*
X001419Y019110D02*
X001239Y019110D01*
X001239Y019012D02*
X001419Y019012D01*
X001471Y018913D02*
X001188Y018913D01*
X001090Y018815D02*
X001569Y018815D01*
X001635Y018519D02*
X001024Y018519D01*
X001123Y018421D02*
X001536Y018421D01*
X001438Y018322D02*
X001221Y018322D01*
X001239Y018224D02*
X001419Y018224D01*
X001419Y018125D02*
X001239Y018125D01*
X001239Y018027D02*
X001419Y018027D01*
X001456Y017928D02*
X001203Y017928D01*
X001105Y017830D02*
X001554Y017830D01*
X001653Y017731D02*
X001006Y017731D01*
X000999Y017544D02*
X000660Y017544D01*
X000419Y017304D01*
X000419Y016965D01*
X000660Y016724D01*
X000999Y016724D01*
X001239Y016965D01*
X001239Y017304D01*
X000999Y017544D01*
X001009Y017534D02*
X001650Y017534D01*
X001551Y017436D02*
X001108Y017436D01*
X001206Y017337D02*
X001453Y017337D01*
X001419Y017239D02*
X001239Y017239D01*
X001239Y017140D02*
X001419Y017140D01*
X001419Y017042D02*
X001239Y017042D01*
X001218Y016943D02*
X001441Y016943D01*
X001539Y016845D02*
X001120Y016845D01*
X001021Y016746D02*
X001638Y016746D01*
X000638Y016746D02*
X000339Y016746D01*
X000339Y016845D02*
X000539Y016845D01*
X000441Y016943D02*
X000339Y016943D01*
X000339Y017042D02*
X000419Y017042D01*
X000419Y017140D02*
X000339Y017140D01*
X000339Y017239D02*
X000419Y017239D01*
X000453Y017337D02*
X000339Y017337D01*
X000339Y017436D02*
X000551Y017436D01*
X000650Y017534D02*
X000339Y017534D01*
X002105Y017830D02*
X019252Y017830D01*
X019252Y017928D02*
X002203Y017928D01*
X002239Y018027D02*
X019252Y018027D01*
X019252Y018125D02*
X002239Y018125D01*
X002239Y018224D02*
X019252Y018224D01*
X019252Y018322D02*
X002221Y018322D01*
X002123Y018421D02*
X019252Y018421D01*
X019252Y018519D02*
X002024Y018519D01*
X002090Y018815D02*
X019252Y018815D01*
X019248Y018913D02*
X002188Y018913D01*
X002239Y019012D02*
X019226Y019012D01*
X019194Y019110D02*
X002239Y019110D01*
X002239Y019209D02*
X019130Y019209D01*
X019043Y019307D02*
X002236Y019307D01*
X002138Y019406D02*
X018885Y019406D01*
X019252Y015564D02*
X000339Y015564D01*
X000339Y015466D02*
X000581Y015466D01*
X000483Y015367D02*
X000339Y015367D01*
X000339Y015269D02*
X000419Y015269D01*
X000419Y015170D02*
X000339Y015170D01*
X000339Y015072D02*
X000419Y015072D01*
X000419Y014973D02*
X000339Y014973D01*
X000339Y014875D02*
X000509Y014875D01*
X000608Y014776D02*
X000339Y014776D01*
X000339Y014678D02*
X019252Y014678D01*
X019252Y014776D02*
X002051Y014776D01*
X002150Y014875D02*
X019252Y014875D01*
X019252Y014973D02*
X002239Y014973D01*
X002239Y015072D02*
X019252Y015072D01*
X019252Y015170D02*
X002239Y015170D01*
X002239Y015269D02*
X019252Y015269D01*
X019252Y015367D02*
X002176Y015367D01*
X002078Y015466D02*
X019252Y015466D01*
X019252Y014579D02*
X000339Y014579D01*
X000339Y014481D02*
X000596Y014481D01*
X000498Y014382D02*
X000339Y014382D01*
X000339Y014284D02*
X000419Y014284D01*
X000419Y014185D02*
X000339Y014185D01*
X000339Y014087D02*
X000419Y014087D01*
X000419Y013988D02*
X000339Y013988D01*
X000339Y013890D02*
X000494Y013890D01*
X000593Y013791D02*
X000339Y013791D01*
X000339Y013693D02*
X019252Y013693D01*
X019252Y013791D02*
X002066Y013791D01*
X002165Y013890D02*
X019252Y013890D01*
X019252Y013988D02*
X002239Y013988D01*
X002239Y014087D02*
X019252Y014087D01*
X019252Y014185D02*
X002239Y014185D01*
X002239Y014284D02*
X019252Y014284D01*
X019252Y014382D02*
X002161Y014382D01*
X002063Y014481D02*
X019252Y014481D01*
X019252Y013594D02*
X000339Y013594D01*
X000339Y013496D02*
X000611Y013496D01*
X000513Y013397D02*
X000339Y013397D01*
X000339Y013299D02*
X000419Y013299D01*
X000419Y013200D02*
X000339Y013200D01*
X000339Y013102D02*
X000419Y013102D01*
X000419Y013003D02*
X000339Y013003D01*
X000339Y012905D02*
X000479Y012905D01*
X000578Y012806D02*
X000339Y012806D01*
X000339Y012708D02*
X019252Y012708D01*
X019252Y012806D02*
X002081Y012806D01*
X002180Y012905D02*
X019252Y012905D01*
X019252Y013003D02*
X002239Y013003D01*
X002239Y013102D02*
X019252Y013102D01*
X019252Y013200D02*
X002239Y013200D01*
X002239Y013299D02*
X019252Y013299D01*
X019252Y013397D02*
X002146Y013397D01*
X002048Y013496D02*
X019252Y013496D01*
X019252Y012609D02*
X000339Y012609D01*
X000339Y012511D02*
X000626Y012511D01*
X000528Y012412D02*
X000339Y012412D01*
X000339Y012314D02*
X000429Y012314D01*
X000419Y012215D02*
X000339Y012215D01*
X000339Y012117D02*
X000419Y012117D01*
X000419Y012018D02*
X000339Y012018D01*
X000339Y011920D02*
X000464Y011920D01*
X000563Y011821D02*
X000339Y011821D01*
X000339Y011723D02*
X019252Y011723D01*
X019252Y011821D02*
X002096Y011821D01*
X002195Y011920D02*
X019252Y011920D01*
X019252Y012018D02*
X002239Y012018D01*
X002239Y012117D02*
X019252Y012117D01*
X019252Y012215D02*
X002239Y012215D01*
X002230Y012314D02*
X019252Y012314D01*
X019252Y012412D02*
X002131Y012412D01*
X002033Y012511D02*
X019252Y012511D01*
X019252Y011624D02*
X000339Y011624D01*
X000339Y011526D02*
X000641Y011526D01*
X000543Y011427D02*
X000339Y011427D01*
X000339Y011329D02*
X000444Y011329D01*
X000419Y011230D02*
X000339Y011230D01*
X000339Y011132D02*
X000419Y011132D01*
X000419Y011033D02*
X000339Y011033D01*
X000339Y010935D02*
X000449Y010935D01*
X000548Y010836D02*
X000339Y010836D01*
X000339Y010738D02*
X000646Y010738D01*
X000656Y010541D02*
X000339Y010541D01*
X000339Y010639D02*
X019252Y010639D01*
X019252Y010541D02*
X003555Y010541D01*
X003617Y010442D02*
X019252Y010442D01*
X019252Y010344D02*
X003633Y010344D01*
X003612Y010245D02*
X019252Y010245D01*
X019252Y010147D02*
X003635Y010147D01*
X003635Y010048D02*
X019252Y010048D01*
X019252Y009950D02*
X003635Y009950D01*
X003635Y009851D02*
X019252Y009851D01*
X019252Y009753D02*
X003600Y009753D01*
X003622Y009654D02*
X019252Y009654D01*
X019252Y009556D02*
X003635Y009556D01*
X003635Y009457D02*
X019252Y009457D01*
X019252Y009359D02*
X003635Y009359D01*
X003625Y009260D02*
X003719Y009260D01*
X004000Y009260D02*
X004100Y009260D01*
X004100Y009305D02*
X004100Y009005D01*
X004425Y009005D01*
X004425Y009174D01*
X004415Y009213D01*
X004395Y009247D01*
X004367Y009275D01*
X004333Y009295D01*
X004295Y009305D01*
X004100Y009305D01*
X004100Y009162D02*
X004000Y009162D01*
X004000Y009063D02*
X004100Y009063D01*
X004100Y008965D02*
X019252Y008965D01*
X019252Y009063D02*
X004425Y009063D01*
X004425Y009162D02*
X019252Y009162D01*
X019252Y009260D02*
X004381Y009260D01*
X004425Y008905D02*
X004100Y008905D01*
X004100Y008605D01*
X004295Y008605D01*
X004333Y008615D01*
X004367Y008635D01*
X004395Y008663D01*
X004415Y008697D01*
X004425Y008735D01*
X004425Y008905D01*
X004425Y008866D02*
X019252Y008866D01*
X019252Y008768D02*
X004425Y008768D01*
X004399Y008669D02*
X019252Y008669D01*
X019252Y008571D02*
X004115Y008571D01*
X004100Y008669D02*
X004000Y008669D01*
X004000Y008768D02*
X004100Y008768D01*
X004100Y008866D02*
X004000Y008866D01*
X004144Y008472D02*
X019252Y008472D01*
X019252Y008374D02*
X004144Y008374D01*
X004144Y008275D02*
X019252Y008275D01*
X019252Y008177D02*
X004144Y008177D01*
X004136Y008078D02*
X019252Y008078D01*
X019252Y007980D02*
X004022Y007980D01*
X003046Y006699D02*
X000339Y006699D01*
X000339Y006601D02*
X003046Y006601D01*
X003166Y005714D02*
X000339Y005714D01*
X000339Y005616D02*
X003166Y005616D01*
X003166Y004532D02*
X002011Y004532D01*
X002110Y004434D02*
X003166Y004434D01*
X003166Y004335D02*
X002208Y004335D01*
X002239Y004237D02*
X003166Y004237D01*
X003166Y004138D02*
X002239Y004138D01*
X002239Y004040D02*
X003166Y004040D01*
X003166Y003941D02*
X002216Y003941D01*
X002118Y003843D02*
X003166Y003843D01*
X000879Y002956D02*
X000779Y002956D01*
X000779Y002858D02*
X000879Y002858D01*
X000879Y002759D02*
X000779Y002759D01*
X000379Y003252D02*
X000339Y003252D01*
X000339Y003350D02*
X000409Y003350D01*
X000339Y003449D02*
X000508Y003449D01*
X000606Y003547D02*
X000339Y003547D01*
X000339Y004828D02*
X000556Y004828D01*
X000458Y004926D02*
X000339Y004926D01*
X000339Y005025D02*
X000419Y005025D01*
X000419Y005123D02*
X000339Y005123D01*
X000339Y005222D02*
X000419Y005222D01*
X000436Y005320D02*
X000339Y005320D01*
X000339Y005419D02*
X000534Y005419D01*
X000633Y005517D02*
X000339Y005517D01*
X000339Y005813D02*
X000571Y005813D01*
X000473Y005911D02*
X000339Y005911D01*
X000339Y006010D02*
X000419Y006010D01*
X000419Y006108D02*
X000339Y006108D01*
X000339Y006207D02*
X000419Y006207D01*
X000421Y006305D02*
X000339Y006305D01*
X000339Y006404D02*
X000519Y006404D01*
X000618Y006502D02*
X000339Y006502D01*
X000339Y006798D02*
X000586Y006798D01*
X000488Y006896D02*
X000339Y006896D01*
X000339Y006995D02*
X000419Y006995D01*
X000419Y007093D02*
X000339Y007093D01*
X000339Y007192D02*
X000419Y007192D01*
X000419Y007290D02*
X000339Y007290D01*
X000339Y007389D02*
X000504Y007389D01*
X000603Y007487D02*
X000339Y007487D01*
X000339Y007783D02*
X000601Y007783D01*
X000503Y007881D02*
X000339Y007881D01*
X000339Y007980D02*
X000419Y007980D01*
X000419Y008078D02*
X000339Y008078D01*
X000339Y008177D02*
X000419Y008177D01*
X000419Y008275D02*
X000339Y008275D01*
X000339Y008374D02*
X000489Y008374D01*
X000588Y008472D02*
X000339Y008472D01*
X000339Y008768D02*
X000616Y008768D01*
X000518Y008866D02*
X000339Y008866D01*
X000339Y009063D02*
X000419Y009063D01*
X000419Y009162D02*
X000339Y009162D01*
X000339Y009260D02*
X000419Y009260D01*
X000474Y009359D02*
X000339Y009359D01*
X000339Y009457D02*
X000573Y009457D01*
X000631Y009753D02*
X000339Y009753D01*
X000339Y009851D02*
X000533Y009851D01*
X000434Y009950D02*
X000339Y009950D01*
X000339Y010048D02*
X000419Y010048D01*
X000419Y010147D02*
X000339Y010147D01*
X000339Y010245D02*
X000419Y010245D01*
X000459Y010344D02*
X000339Y010344D01*
X000339Y010442D02*
X000558Y010442D01*
X002003Y010541D02*
X003172Y010541D01*
X003109Y010442D02*
X002101Y010442D01*
X002200Y010344D02*
X003093Y010344D01*
X003115Y010245D02*
X002239Y010245D01*
X002239Y010147D02*
X003060Y010147D01*
X003060Y010048D02*
X002239Y010048D01*
X002225Y009950D02*
X003060Y009950D01*
X003060Y009851D02*
X002126Y009851D01*
X002013Y010738D02*
X019252Y010738D01*
X019252Y010836D02*
X002111Y010836D01*
X002210Y010935D02*
X019252Y010935D01*
X019252Y011033D02*
X002239Y011033D01*
X002239Y011132D02*
X019252Y011132D01*
X019252Y011230D02*
X002239Y011230D01*
X002215Y011329D02*
X019252Y011329D01*
X019252Y011427D02*
X002116Y011427D01*
X002018Y011526D02*
X019252Y011526D01*
X019252Y004138D02*
X013427Y004138D01*
X013432Y004040D02*
X019252Y004040D01*
X019252Y003941D02*
X013432Y003941D01*
X013432Y003843D02*
X019252Y003843D01*
X019252Y003744D02*
X013432Y003744D01*
X013432Y003646D02*
X019252Y003646D01*
X019252Y003547D02*
X013432Y003547D01*
X013432Y003449D02*
X019252Y003449D01*
X019252Y003350D02*
X013432Y003350D01*
X013432Y003252D02*
X019252Y003252D01*
X019252Y003153D02*
X013432Y003153D01*
X013432Y003055D02*
X019252Y003055D01*
X019252Y002956D02*
X013408Y002956D01*
X012515Y002858D02*
X019252Y002858D01*
X019252Y002759D02*
X012417Y002759D01*
X012318Y002661D02*
X019252Y002661D01*
X019252Y002562D02*
X012220Y002562D01*
X012121Y002464D02*
X019252Y002464D01*
X019252Y002365D02*
X012023Y002365D01*
X011924Y002267D02*
X019252Y002267D01*
X019252Y002168D02*
X011826Y002168D01*
X011727Y002070D02*
X019252Y002070D01*
X019252Y001971D02*
X011629Y001971D01*
X011530Y001873D02*
X019252Y001873D01*
X019252Y001774D02*
X018454Y001774D01*
X018448Y001774D02*
X018351Y001774D01*
X018351Y001775D02*
X018292Y001766D01*
X018223Y001744D01*
X018158Y001711D01*
X018100Y001668D01*
X018048Y001617D01*
X018006Y001559D01*
X017973Y001494D01*
X017951Y001425D01*
X017941Y001366D01*
X018351Y001366D01*
X018351Y001775D01*
X018344Y001774D02*
X011432Y001774D01*
X011625Y001676D02*
X011722Y001676D01*
X011722Y001577D02*
X011625Y001577D01*
X011625Y001479D02*
X011722Y001479D01*
X011722Y001380D02*
X011625Y001380D01*
X011625Y001282D02*
X011080Y001282D01*
X011080Y001380D02*
X011227Y001380D01*
X011227Y001479D02*
X011136Y001479D01*
X010894Y001774D02*
X010172Y001774D01*
X010202Y001873D02*
X010993Y001873D01*
X011091Y001971D02*
X010202Y001971D01*
X010202Y002070D02*
X011190Y002070D01*
X011288Y002168D02*
X010202Y002168D01*
X010202Y002267D02*
X011387Y002267D01*
X011485Y002365D02*
X010202Y002365D01*
X010202Y002464D02*
X011584Y002464D01*
X011682Y002562D02*
X010202Y002562D01*
X010202Y002661D02*
X011781Y002661D01*
X011879Y002759D02*
X010202Y002759D01*
X010202Y002858D02*
X011978Y002858D01*
X012076Y002956D02*
X010908Y002956D01*
X010932Y003055D02*
X012175Y003055D01*
X012208Y003153D02*
X010932Y003153D01*
X010932Y003252D02*
X012208Y003252D01*
X012208Y003350D02*
X010932Y003350D01*
X010932Y003449D02*
X012208Y003449D01*
X012208Y003547D02*
X010932Y003547D01*
X010932Y003646D02*
X012208Y003646D01*
X012208Y003744D02*
X010932Y003744D01*
X010932Y003843D02*
X012208Y003843D01*
X012208Y003941D02*
X010932Y003941D01*
X010932Y004040D02*
X012208Y004040D01*
X012212Y004138D02*
X010927Y004138D01*
X009112Y002168D02*
X009012Y002168D01*
X009012Y002070D02*
X009112Y002070D01*
X009112Y001971D02*
X009012Y001971D01*
X008737Y001971D02*
X008506Y001971D01*
X009679Y001282D02*
X010267Y001282D01*
X010267Y001380D02*
X009778Y001380D01*
X009876Y001479D02*
X010267Y001479D01*
X010267Y001577D02*
X009975Y001577D01*
X010073Y001676D02*
X010315Y001676D01*
X010267Y001183D02*
X009581Y001183D01*
X009482Y001085D02*
X010267Y001085D01*
X011026Y000888D02*
X011265Y000888D01*
X011227Y000986D02*
X011080Y000986D01*
X011080Y001085D02*
X011227Y001085D01*
X011227Y001183D02*
X011080Y001183D01*
X011625Y001183D02*
X011722Y001183D01*
X011722Y001237D02*
X011722Y000838D01*
X011990Y000838D01*
X012028Y000848D01*
X012063Y000868D01*
X012091Y000896D01*
X012110Y000930D01*
X012120Y000968D01*
X012120Y001237D01*
X011722Y001237D01*
X011722Y001282D02*
X018351Y001282D01*
X018351Y001269D02*
X017941Y001269D01*
X017951Y001210D01*
X017973Y001141D01*
X018006Y001076D01*
X018048Y001018D01*
X018100Y000967D01*
X018158Y000924D01*
X018223Y000891D01*
X018292Y000869D01*
X018351Y000859D01*
X018351Y001269D01*
X018448Y001269D01*
X018448Y001366D01*
X018857Y001366D01*
X018848Y001425D01*
X018826Y001494D01*
X018793Y001559D01*
X018750Y001617D01*
X018699Y001668D01*
X018640Y001711D01*
X018576Y001744D01*
X018507Y001766D01*
X018448Y001775D01*
X018448Y001366D01*
X018351Y001366D01*
X018351Y001269D01*
X018351Y001183D02*
X018448Y001183D01*
X018448Y001269D02*
X018448Y000859D01*
X018507Y000869D01*
X018576Y000891D01*
X018640Y000924D01*
X018699Y000967D01*
X018750Y001018D01*
X018793Y001076D01*
X018826Y001141D01*
X018848Y001210D01*
X018857Y001269D01*
X018448Y001269D01*
X018448Y001282D02*
X019252Y001282D01*
X019252Y001380D02*
X018855Y001380D01*
X018830Y001479D02*
X019252Y001479D01*
X019252Y001577D02*
X018779Y001577D01*
X018688Y001676D02*
X019252Y001676D01*
X018448Y001676D02*
X018351Y001676D01*
X018351Y001577D02*
X018448Y001577D01*
X018448Y001479D02*
X018351Y001479D01*
X018351Y001380D02*
X018448Y001380D01*
X018448Y001085D02*
X018351Y001085D01*
X018351Y000986D02*
X018448Y000986D01*
X018448Y000888D02*
X018351Y000888D01*
X018233Y000888D02*
X012082Y000888D01*
X012120Y000986D02*
X018080Y000986D01*
X018001Y001085D02*
X012120Y001085D01*
X012120Y001183D02*
X017959Y001183D01*
X017944Y001380D02*
X012120Y001380D01*
X012120Y001479D02*
X017968Y001479D01*
X018020Y001577D02*
X012120Y001577D01*
X012089Y001676D02*
X018110Y001676D01*
X018839Y001183D02*
X019252Y001183D01*
X019252Y001085D02*
X018797Y001085D01*
X018719Y000986D02*
X019252Y000986D01*
X019243Y000888D02*
X018566Y000888D01*
X018748Y000395D02*
X004079Y000395D01*
X003409Y000395D02*
X000843Y000395D01*
X001064Y000789D02*
X001419Y000789D01*
X001484Y000724D01*
X002175Y000724D01*
X002239Y000789D01*
X002239Y001480D01*
X002175Y001544D01*
X001484Y001544D01*
X001419Y001480D01*
X001419Y000789D01*
X001419Y000888D02*
X001163Y000888D01*
X001239Y000986D02*
X001419Y000986D01*
X001419Y001085D02*
X001239Y001085D01*
X001239Y001183D02*
X001419Y001183D01*
X001419Y001282D02*
X001239Y001282D01*
X001163Y001380D02*
X001419Y001380D01*
X001419Y001479D02*
X001065Y001479D01*
X000339Y001577D02*
X004370Y001577D01*
X004272Y001479D02*
X002239Y001479D01*
X002239Y001380D02*
X004173Y001380D01*
X004075Y001282D02*
X002239Y001282D01*
X002239Y001183D02*
X003976Y001183D01*
X004218Y000888D02*
X006712Y000888D01*
X006712Y000986D02*
X006812Y000986D01*
X006812Y001085D02*
X006712Y001085D01*
X006712Y001183D02*
X006812Y001183D01*
X007099Y001183D02*
X007182Y001183D01*
X006812Y000789D02*
X006712Y000789D01*
X006712Y000691D02*
X006812Y000691D01*
X006812Y000592D02*
X006712Y000592D01*
X007108Y000592D02*
X007173Y000592D01*
X005745Y001380D02*
X005745Y001380D01*
X005745Y001479D02*
X005745Y001479D01*
X005745Y001577D02*
X005745Y001577D01*
X005466Y001380D02*
X004711Y001380D01*
X004809Y001479D02*
X005397Y001479D01*
X005395Y001577D02*
X004908Y001577D01*
X003524Y001085D02*
X002239Y001085D01*
X002239Y000986D02*
X003426Y000986D01*
X003327Y000888D02*
X002239Y000888D01*
X002239Y000789D02*
X003304Y000789D01*
X003304Y000691D02*
X000422Y000691D01*
X006515Y002759D02*
X006827Y002759D01*
X011625Y001085D02*
X011722Y001085D01*
X011722Y000986D02*
X011625Y000986D01*
X011625Y000888D02*
X011722Y000888D01*
D24*
X009526Y002284D03*
X008312Y001783D03*
X006272Y000866D03*
X001323Y002604D03*
X001312Y003600D03*
X007250Y004320D03*
X010150Y006198D03*
X015150Y006198D03*
X015150Y010198D03*
X010150Y010198D03*
X005150Y010198D03*
X003363Y010350D03*
X004570Y008986D03*
X004273Y008298D03*
X001312Y008718D03*
X001312Y012655D03*
X001312Y014624D03*
X005150Y015198D03*
X001320Y016679D03*
X001320Y018648D03*
X005150Y018198D03*
X010150Y018198D03*
X010117Y015660D03*
X015150Y014198D03*
X018410Y018580D03*
X016309Y018690D03*
X015020Y001236D03*
D25*
X012820Y003431D02*
X012820Y003557D01*
X012820Y003431D02*
X010674Y001285D01*
X010012Y001883D02*
X009368Y001239D01*
X008812Y001239D01*
X008356Y001239D01*
X008212Y001383D01*
X008007Y001589D01*
X007635Y001589D01*
X007635Y001845D02*
X008251Y001845D01*
X008312Y001783D01*
X008180Y002101D02*
X007635Y002101D01*
X007635Y002357D02*
X007635Y002756D01*
X007862Y002983D01*
X007162Y002983D02*
X006268Y002983D01*
X005756Y002983D02*
X005756Y002368D01*
X005745Y002357D01*
X005745Y001845D02*
X004907Y001845D01*
X003744Y000683D01*
X007462Y000883D02*
X007618Y000728D01*
X008812Y000728D01*
X010012Y001883D02*
X010012Y002792D01*
X010012Y003250D01*
X010320Y003557D01*
X008362Y002283D02*
X008180Y002101D01*
X003356Y003248D02*
X003356Y006798D01*
X003356Y007498D02*
X003344Y007661D01*
X003344Y008305D01*
X003350Y008311D01*
X003350Y008955D01*
X003350Y009459D01*
X003347Y009459D01*
X003347Y009971D02*
X003363Y009971D01*
X003363Y010350D01*
X003356Y003248D02*
X002760Y002651D01*
M02*
